<?xml version="1.0" encoding="UTF-8" standalone="no"?>
<!DOCTYPE svg PUBLIC "-//W3C//DTD SVG 1.1//EN"
 "http://www.w3.org/Graphics/SVG/1.1/DTD/svg11.dtd">
<!-- Generated by graphviz version 9.0.0 (20230911.1827)
 -->
<!-- Title: dependency&#45;cruiser output Pages: 1 -->
<svg width="399pt" height="260pt"
 viewBox="0.00 0.00 399.25 260.00" xmlns="http://www.w3.org/2000/svg" xmlns:xlink="http://www.w3.org/1999/xlink">
<g id="graph0" class="graph" transform="scale(1 1) rotate(0) translate(4 256)">
<title>dependency&#45;cruiser output</title>
<polygon fill="white" stroke="none" points="-4,4 -4,-256 395.25,-256 395.25,4 -4,4"/>
<g id="clust1" class="cluster">
<title>cluster_src</title>
<path fill="#ffffff" stroke="black" stroke-width="2" d="M20,-8C20,-8 371.25,-8 371.25,-8 377.25,-8 383.25,-14 383.25,-20 383.25,-20 383.25,-232 383.25,-232 383.25,-238 377.25,-244 371.25,-244 371.25,-244 20,-244 20,-244 14,-244 8,-238 8,-232 8,-232 8,-20 8,-20 8,-14 14,-8 20,-8"/>
<text text-anchor="middle" x="195.62" y="-231.45" font-family="Helvetica,sans-Serif" font-weight="bold" font-size="9.00">src</text>
</g>
<g id="clust2" class="cluster">
<title>cluster_src/components</title>
<path fill="#ffffff" stroke="black" stroke-width="2" d="M171.75,-16C171.75,-16 350.12,-16 350.12,-16 356.12,-16 362.12,-22 362.12,-28 362.12,-28 362.12,-86 362.12,-86 362.12,-92 356.12,-98 350.12,-98 350.12,-98 171.75,-98 171.75,-98 165.75,-98 159.75,-92 159.75,-86 159.75,-86 159.75,-28 159.75,-28 159.75,-22 165.75,-16 171.75,-16"/>
<text text-anchor="middle" x="260.94" y="-85.45" font-family="Helvetica,sans-Serif" font-weight="bold" font-size="9.00">components</text>
</g>
<g id="clust3" class="cluster">
<title>cluster_src/hooks</title>
<path fill="#ffffff" stroke="black" stroke-width="2" d="M262.25,-106C262.25,-106 363.25,-106 363.25,-106 369.25,-106 375.25,-112 375.25,-118 375.25,-118 375.25,-206 375.25,-206 375.25,-212 369.25,-218 363.25,-218 363.25,-218 262.25,-218 262.25,-218 256.25,-218 250.25,-212 250.25,-206 250.25,-206 250.25,-118 250.25,-118 250.25,-112 256.25,-106 262.25,-106"/>
<text text-anchor="middle" x="312.75" y="-205.45" font-family="Helvetica,sans-Serif" font-weight="bold" font-size="9.00">hooks</text>
</g>
<!-- src/App.jsx -->
<g id="node1" class="node">
<title>src/App.jsx</title>
<g id="a_node1"><a xlink:href="src/App.jsx" xlink:title="App.jsx">
<path fill="#ffff77" stroke="black" d="M145.71,-78.88C145.71,-78.88 103.54,-78.88 103.54,-78.88 100.58,-78.88 97.62,-75.92 97.62,-72.96 97.62,-72.96 97.62,-67.04 97.62,-67.04 97.62,-64.08 100.58,-61.12 103.54,-61.12 103.54,-61.12 145.71,-61.12 145.71,-61.12 148.67,-61.12 151.62,-64.08 151.62,-67.04 151.62,-67.04 151.62,-72.96 151.62,-72.96 151.62,-75.92 148.67,-78.88 145.71,-78.88"/>
<text text-anchor="start" x="109.62" y="-66.33" font-family="Helvetica,sans-Serif" font-size="9.00">App.jsx</text>
</a>
</g>
</g>
<!-- src/components/TodoList.jsx -->
<g id="node2" class="node">
<title>src/components/TodoList.jsx</title>
<g id="a_node2"><a xlink:href="src/components/TodoList.jsx" xlink:title="TodoList.jsx">
<path fill="#ffff77" stroke="black" d="M231.08,-41.88C231.08,-41.88 178.92,-41.88 178.92,-41.88 175.96,-41.88 173,-38.92 173,-35.96 173,-35.96 173,-30.04 173,-30.04 173,-27.08 175.96,-24.12 178.92,-24.12 178.92,-24.12 231.08,-24.12 231.08,-24.12 234.04,-24.12 237,-27.08 237,-30.04 237,-30.04 237,-35.96 237,-35.96 237,-38.92 234.04,-41.88 231.08,-41.88"/>
<text text-anchor="start" x="181" y="-29.32" font-family="Helvetica,sans-Serif" font-size="9.00">TodoList.jsx</text>
</a>
</g>
</g>
<!-- src/App.jsx&#45;&gt;src/components/TodoList.jsx -->
<g id="edge1" class="edge">
<title>src/App.jsx&#45;&gt;src/components/TodoList.jsx</title>
<path fill="none" stroke="#000000" stroke-width="2" stroke-opacity="0.200000" d="M143.07,-60.63C146.03,-58.85 149.03,-56.94 151.75,-55 155.6,-52.25 155.66,-50.36 159.75,-48 161.41,-47.05 163.13,-46.14 164.9,-45.28"/>
<polygon fill="#000000" fill-opacity="0.200000" stroke="#000000" stroke-width="2" stroke-opacity="0.200000" points="165.41,-47.35 170.07,-43.03 163.73,-43.5 165.41,-47.35"/>
</g>
<!-- src/components/Checkmark.png -->
<g id="node4" class="node">
<title>src/components/Checkmark.png</title>
<g id="a_node4"><a xlink:href="src/components/Checkmark.png" xlink:title="Checkmark.png">
<path fill="#ffffcc" stroke="black" d="M347.08,-41.88C347.08,-41.88 278.42,-41.88 278.42,-41.88 275.46,-41.88 272.5,-38.92 272.5,-35.96 272.5,-35.96 272.5,-30.04 272.5,-30.04 272.5,-27.08 275.46,-24.12 278.42,-24.12 278.42,-24.12 347.08,-24.12 347.08,-24.12 350.04,-24.12 353,-27.08 353,-30.04 353,-30.04 353,-35.96 353,-35.96 353,-38.92 350.04,-41.88 347.08,-41.88"/>
<text text-anchor="start" x="280.5" y="-29.32" font-family="Helvetica,sans-Serif" font-size="9.00">Checkmark.png</text>
</a>
</g>
</g>
<!-- src/components/TodoList.jsx&#45;&gt;src/components/Checkmark.png -->
<g id="edge7" class="edge">
<title>src/components/TodoList.jsx&#45;&gt;src/components/Checkmark.png</title>
<path fill="none" stroke="#000000" stroke-width="2" stroke-opacity="0.200000" d="M237.44,-33C245.66,-33 254.71,-33 263.59,-33"/>
<polygon fill="#000000" fill-opacity="0.200000" stroke="#000000" stroke-width="2" stroke-opacity="0.200000" points="263.33,-35.1 269.33,-33 263.33,-30.9 263.33,-35.1"/>
</g>
<!-- src/hooks/useIsOpen.jsx -->
<g id="node6" class="node">
<title>src/hooks/useIsOpen.jsx</title>
<g id="a_node6"><a xlink:href="src/hooks/useIsOpen.jsx" xlink:title="useIsOpen.jsx">
<path fill="#ffff77" stroke="black" d="M343.71,-191.88C343.71,-191.88 281.79,-191.88 281.79,-191.88 278.83,-191.88 275.88,-188.92 275.88,-185.96 275.88,-185.96 275.88,-180.04 275.88,-180.04 275.88,-177.08 278.83,-174.12 281.79,-174.12 281.79,-174.12 343.71,-174.12 343.71,-174.12 346.67,-174.12 349.62,-177.08 349.62,-180.04 349.62,-180.04 349.62,-185.96 349.62,-185.96 349.62,-188.92 346.67,-191.88 343.71,-191.88"/>
<text text-anchor="start" x="283.88" y="-179.32" font-family="Helvetica,sans-Serif" font-size="9.00">useIsOpen.jsx</text>
</a>
</g>
</g>
<!-- src/components/TodoList.jsx&#45;&gt;src/hooks/useIsOpen.jsx -->
<g id="edge5" class="edge">
<title>src/components/TodoList.jsx&#45;&gt;src/hooks/useIsOpen.jsx</title>
<path fill="none" stroke="#000000" stroke-width="2" stroke-opacity="0.200000" d="M236.48,-42.29C238.68,-43.9 240.66,-45.79 242.25,-48 257.83,-69.71 233.05,-147.54 250.25,-168 254.68,-173.26 260.61,-176.85 267.06,-179.27"/>
<polygon fill="#000000" fill-opacity="0.200000" stroke="#000000" stroke-width="2" stroke-opacity="0.200000" points="266.16,-181.19 272.51,-180.88 267.35,-177.16 266.16,-181.19"/>
</g>
<!-- src/hooks/useManageTodos.jsx -->
<g id="node7" class="node">
<title>src/hooks/useManageTodos.jsx</title>
<g id="a_node7"><a xlink:href="src/hooks/useManageTodos.jsx" xlink:title="useManageTodos.jsx">
<path fill="#ffff77" stroke="black" d="M358.33,-161.88C358.33,-161.88 267.17,-161.88 267.17,-161.88 264.21,-161.88 261.25,-158.92 261.25,-155.96 261.25,-155.96 261.25,-150.04 261.25,-150.04 261.25,-147.08 264.21,-144.12 267.17,-144.12 267.17,-144.12 358.33,-144.12 358.33,-144.12 361.29,-144.12 364.25,-147.08 364.25,-150.04 364.25,-150.04 364.25,-155.96 364.25,-155.96 364.25,-158.92 361.29,-161.88 358.33,-161.88"/>
<text text-anchor="start" x="269.25" y="-149.32" font-family="Helvetica,sans-Serif" font-size="9.00">useManageTodos.jsx</text>
</a>
</g>
</g>
<!-- src/components/TodoList.jsx&#45;&gt;src/hooks/useManageTodos.jsx -->
<g id="edge6" class="edge">
<title>src/components/TodoList.jsx&#45;&gt;src/hooks/useManageTodos.jsx</title>
<path fill="none" stroke="#000000" stroke-width="2" stroke-opacity="0.200000" d="M236.43,-42.33C238.64,-43.93 240.64,-45.8 242.25,-48 254.14,-64.18 237.16,-122.77 250.25,-138 251.28,-139.2 252.4,-140.32 253.58,-141.35"/>
<polygon fill="#000000" fill-opacity="0.200000" stroke="#000000" stroke-width="2" stroke-opacity="0.200000" points="252.35,-143.05 258.48,-144.71 254.72,-139.59 252.35,-143.05"/>
</g>
<!-- src/components/TodoCounter.jsx -->
<g id="node8" class="node">
<title>src/components/TodoCounter.jsx</title>
<g id="a_node8"><a xlink:href="src/components/TodoCounter.jsx" xlink:title="TodoCounter.jsx">
<path fill="#ffff77" stroke="black" d="M348.21,-71.88C348.21,-71.88 277.29,-71.88 277.29,-71.88 274.33,-71.88 271.38,-68.92 271.38,-65.96 271.38,-65.96 271.38,-60.04 271.38,-60.04 271.38,-57.08 274.33,-54.12 277.29,-54.12 277.29,-54.12 348.21,-54.12 348.21,-54.12 351.17,-54.12 354.12,-57.08 354.12,-60.04 354.12,-60.04 354.12,-65.96 354.12,-65.96 354.12,-68.92 351.17,-71.88 348.21,-71.88"/>
<text text-anchor="start" x="279.38" y="-59.33" font-family="Helvetica,sans-Serif" font-size="9.00">TodoCounter.jsx</text>
</a>
</g>
</g>
<!-- src/components/TodoList.jsx&#45;&gt;src/components/TodoCounter.jsx -->
<g id="edge8" class="edge">
<title>src/components/TodoList.jsx&#45;&gt;src/components/TodoCounter.jsx</title>
<path fill="none" stroke="#000000" stroke-width="2" stroke-opacity="0.200000" d="M232.09,-42.27C238.03,-44.26 244.33,-46.28 250.25,-48 254.26,-49.17 258.43,-50.32 262.64,-51.43"/>
<polygon fill="#000000" fill-opacity="0.200000" stroke="#000000" stroke-width="2" stroke-opacity="0.200000" points="261.99,-53.43 268.33,-52.9 263.04,-49.37 261.99,-53.43"/>
</g>
<!-- src/App.test.jsx -->
<g id="node3" class="node">
<title>src/App.test.jsx</title>
<g id="a_node3"><a xlink:href="src/App.test.jsx" xlink:title="App.test.jsx">
<path fill="#ffff77" stroke="black" d="M75.58,-93.88C75.58,-93.88 24.92,-93.88 24.92,-93.88 21.96,-93.88 19,-90.92 19,-87.96 19,-87.96 19,-82.04 19,-82.04 19,-79.08 21.96,-76.12 24.92,-76.12 24.92,-76.12 75.58,-76.12 75.58,-76.12 78.54,-76.12 81.5,-79.08 81.5,-82.04 81.5,-82.04 81.5,-87.96 81.5,-87.96 81.5,-90.92 78.54,-93.88 75.58,-93.88"/>
<text text-anchor="start" x="27" y="-81.33" font-family="Helvetica,sans-Serif" font-size="9.00">App.test.jsx</text>
</a>
</g>
</g>
<!-- src/App.test.jsx&#45;&gt;src/App.jsx -->
<g id="edge2" class="edge">
<title>src/App.test.jsx&#45;&gt;src/App.jsx</title>
<path fill="none" stroke="#000000" stroke-width="2" stroke-opacity="0.200000" d="M81.94,-78.64C84.17,-78.18 86.42,-77.71 88.67,-77.24"/>
<polygon fill="#000000" fill-opacity="0.200000" stroke="#000000" stroke-width="2" stroke-opacity="0.200000" points="88.82,-79.36 94.27,-76.08 87.96,-75.25 88.82,-79.36"/>
</g>
<!-- src/components/PopOutList.jsx -->
<g id="node5" class="node">
<title>src/components/PopOutList.jsx</title>
<g id="a_node5"><a xlink:href="src/components/PopOutList.jsx" xlink:title="PopOutList.jsx">
<path fill="#ffff77" stroke="black" d="M236.33,-71.88C236.33,-71.88 173.67,-71.88 173.67,-71.88 170.71,-71.88 167.75,-68.92 167.75,-65.96 167.75,-65.96 167.75,-60.04 167.75,-60.04 167.75,-57.08 170.71,-54.12 173.67,-54.12 173.67,-54.12 236.33,-54.12 236.33,-54.12 239.29,-54.12 242.25,-57.08 242.25,-60.04 242.25,-60.04 242.25,-65.96 242.25,-65.96 242.25,-68.92 239.29,-71.88 236.33,-71.88"/>
<text text-anchor="start" x="175.75" y="-59.33" font-family="Helvetica,sans-Serif" font-size="9.00">PopOutList.jsx</text>
</a>
</g>
</g>
<!-- src/components/PopOutList.jsx&#45;&gt;src/hooks/useIsOpen.jsx -->
<g id="edge3" class="edge">
<title>src/components/PopOutList.jsx&#45;&gt;src/hooks/useIsOpen.jsx</title>
<path fill="none" stroke="#000000" stroke-width="2" stroke-opacity="0.200000" d="M207.1,-72.19C210.07,-92.69 220.13,-142.34 250.25,-168 255.14,-172.16 261,-175.21 267.14,-177.43"/>
<polygon fill="#000000" fill-opacity="0.200000" stroke="#000000" stroke-width="2" stroke-opacity="0.200000" points="266.36,-179.39 272.71,-179.1 267.56,-175.37 266.36,-179.39"/>
</g>
<!-- src/components/PopOutList.jsx&#45;&gt;src/hooks/useManageTodos.jsx -->
<g id="edge4" class="edge">
<title>src/components/PopOutList.jsx&#45;&gt;src/hooks/useManageTodos.jsx</title>
<path fill="none" stroke="#000000" stroke-width="2" stroke-opacity="0.200000" d="M208.79,-72.22C214.12,-88.21 227.31,-120.97 250.25,-138 251.17,-138.68 252.11,-139.33 253.08,-139.95"/>
<polygon fill="#000000" fill-opacity="0.200000" stroke="#000000" stroke-width="2" stroke-opacity="0.200000" points="251.96,-141.73 258.24,-142.73 253.95,-138.04 251.96,-141.73"/>
</g>
<!-- src/hooks/useCheckBoxLogic.jsx -->
<g id="node9" class="node">
<title>src/hooks/useCheckBoxLogic.jsx</title>
<g id="a_node9"><a xlink:href="src/hooks/useCheckBoxLogic.jsx" xlink:title="useCheckBoxLogic.jsx">
<path fill="#ccffcc" stroke="black" d="M361.33,-131.88C361.33,-131.88 264.17,-131.88 264.17,-131.88 261.21,-131.88 258.25,-128.92 258.25,-125.96 258.25,-125.96 258.25,-120.04 258.25,-120.04 258.25,-117.08 261.21,-114.12 264.17,-114.12 264.17,-114.12 361.33,-114.12 361.33,-114.12 364.29,-114.12 367.25,-117.08 367.25,-120.04 367.25,-120.04 367.25,-125.96 367.25,-125.96 367.25,-128.92 364.29,-131.88 361.33,-131.88"/>
<text text-anchor="start" x="266.25" y="-119.33" font-family="Helvetica,sans-Serif" font-size="9.00">useCheckBoxLogic.jsx</text>
</a>
</g>
</g>
<!-- src/index.css -->
<g id="node10" class="node">
<title>src/index.css</title>
<g id="a_node10"><a xlink:href="src/index.css" xlink:title="index.css">
<path fill="#ffffcc" stroke="black" d="M145.83,-48.88C145.83,-48.88 103.42,-48.88 103.42,-48.88 100.46,-48.88 97.5,-45.92 97.5,-42.96 97.5,-42.96 97.5,-37.04 97.5,-37.04 97.5,-34.08 100.46,-31.12 103.42,-31.12 103.42,-31.12 145.83,-31.12 145.83,-31.12 148.79,-31.12 151.75,-34.08 151.75,-37.04 151.75,-37.04 151.75,-42.96 151.75,-42.96 151.75,-45.92 148.79,-48.88 145.83,-48.88"/>
<text text-anchor="start" x="105.5" y="-36.33" font-family="Helvetica,sans-Serif" font-size="9.00">index.css</text>
</a>
</g>
</g>
<!-- src/main.jsx -->
<g id="node11" class="node">
<title>src/main.jsx</title>
<g id="a_node11"><a xlink:href="src/main.jsx" xlink:title="main.jsx">
<path fill="#ffff77" stroke="black" d="M71.33,-63.88C71.33,-63.88 29.17,-63.88 29.17,-63.88 26.21,-63.88 23.25,-60.92 23.25,-57.96 23.25,-57.96 23.25,-52.04 23.25,-52.04 23.25,-49.08 26.21,-46.12 29.17,-46.12 29.17,-46.12 71.33,-46.12 71.33,-46.12 74.29,-46.12 77.25,-49.08 77.25,-52.04 77.25,-52.04 77.25,-57.96 77.25,-57.96 77.25,-60.92 74.29,-63.88 71.33,-63.88"/>
<text text-anchor="start" x="33.38" y="-51.33" font-family="Helvetica,sans-Serif" font-size="9.00">main.jsx</text>
</a>
</g>
</g>
<!-- src/main.jsx&#45;&gt;src/App.jsx -->
<g id="edge9" class="edge">
<title>src/main.jsx&#45;&gt;src/App.jsx</title>
<path fill="none" stroke="#000000" stroke-width="2" stroke-opacity="0.200000" d="M77.38,-60.42C81.02,-61.17 84.82,-61.96 88.59,-62.74"/>
<polygon fill="#000000" fill-opacity="0.200000" stroke="#000000" stroke-width="2" stroke-opacity="0.200000" points="88.03,-64.77 94.33,-63.93 88.88,-60.65 88.03,-64.77"/>
</g>
<!-- src/main.jsx&#45;&gt;src/index.css -->
<g id="edge10" class="edge">
<title>src/main.jsx&#45;&gt;src/index.css</title>
<path fill="none" stroke="#000000" stroke-width="2" stroke-opacity="0.200000" d="M77.38,-49.58C81.02,-48.83 84.82,-48.04 88.59,-47.26"/>
<polygon fill="#000000" fill-opacity="0.200000" stroke="#000000" stroke-width="2" stroke-opacity="0.200000" points="88.88,-49.35 94.33,-46.07 88.03,-45.23 88.88,-49.35"/>
</g>
<!-- src/setupTests.js -->
<g id="node12" class="node">
<title>src/setupTests.js</title>
<g id="a_node12"><a xlink:href="src/setupTests.js" xlink:title="setupTests.js">
<path fill="#ccffcc" stroke="black" d="M78.58,-33.88C78.58,-33.88 21.92,-33.88 21.92,-33.88 18.96,-33.88 16,-30.92 16,-27.96 16,-27.96 16,-22.04 16,-22.04 16,-19.08 18.96,-16.12 21.92,-16.12 21.92,-16.12 78.58,-16.12 78.58,-16.12 81.54,-16.12 84.5,-19.08 84.5,-22.04 84.5,-22.04 84.5,-27.96 84.5,-27.96 84.5,-30.92 81.54,-33.88 78.58,-33.88"/>
<text text-anchor="start" x="24" y="-21.32" font-family="Helvetica,sans-Serif" font-size="9.00">setupTests.js</text>
</a>
</g>
</g>
</g>
</svg>
